<?xml version="1.0" encoding="UTF-8" standalone="no"?>
<!-- Uploaded to: SVG Repo, www.svgrepo.com, Generator: SVG Repo Mixer Tools -->
<svg width="800px" height="800px" viewBox="0 0 64 64" version="1.1" xmlns="http://www.w3.org/2000/svg" xmlns:xlink="http://www.w3.org/1999/xlink">
    
    <title>db-copy</title>
    <desc>Created with Sketch.</desc>
    <defs>

</defs>
    <g id="64px-Line" stroke="none" stroke-width="1" fill="none" fill-rule="evenodd">
        <g id="db-copy">

</g>
        <path d="M20,58 C21.433,58 34,57.888 34,54 L34,30 C34,26.112 21.433,26 20,26 C18.567,26 6,26.112 6,30 L6,54 C6,57.888 18.567,58 20,58 L20,58 Z M20,56 C12.861,56 8.515,54.691 8,53.932 L8,48.271 C11.606,49.937 18.927,50 20,50 C21.073,50 28.394,49.937 32,48.271 L32,53.932 C31.485,54.691 27.139,56 20,56 L20,56 Z M32,37.93 C31.49,38.689 27.143,40 20,40 C12.857,40 8.51,38.689 8,37.93 L8,32.271 C11.606,33.937 18.927,34 20,34 C21.073,34 28.394,33.937 32,32.271 L32,37.93 L32,37.93 Z M20,42 C21.073,42 28.394,41.937 32,40.271 L32,45.93 C31.49,46.689 27.143,48 20,48 C12.857,48 8.51,46.689 8,45.93 L8,40.271 C11.606,41.937 18.927,42 20,42 L20,42 Z M20,28 C26.929,28 31.228,29.233 31.945,30 C31.228,30.767 26.929,32 20,32 C13.071,32 8.772,30.767 8.055,30 C8.772,29.233 13.071,28 20,28 L20,28 Z" id="Shape" fill="#000000">

</path>
        <path d="M30,20 L30,24.167 C30,24.719 30.448,25.167 31,25.167 C31.552,25.167 32,24.719 32,24.167 L32,22.271 C35.606,23.937 42.927,24 44,24 C45.073,24 52.394,23.937 56,22.271 L56,27.93 C55.49,28.689 51.143,30 44,30 C41.553,30 39.181,29.84 37.14,29.538 C36.593,29.462 36.086,29.835 36.004,30.381 C35.923,30.927 36.3,31.436 36.847,31.517 C38.983,31.833 41.457,32 44,32 C45.073,32 52.394,31.937 56,30.271 L56,35.93 C55.49,36.689 51.143,38 44,38 C41.557,38 39.187,37.841 37.147,37.54 C36.607,37.462 36.092,37.836 36.012,38.383 C35.931,38.929 36.309,39.438 36.855,39.518 C38.99,39.833 41.46,40 44,40 C45.073,40 52.394,39.937 56,38.271 L56,43.932 C55.485,44.691 51.139,46 44,46 C41.557,46 39.187,45.841 37.147,45.54 C36.607,45.461 36.092,45.836 36.012,46.383 C35.931,46.929 36.309,47.438 36.855,47.518 C38.99,47.833 41.46,48 44,48 C45.433,48 58,47.888 58,44 L58,20 C58,16.112 45.433,16 44,16 C42.567,16 30,16.112 30,20 L30,20 Z M44,18 C50.929,18 55.228,19.233 55.945,20 C55.228,20.767 50.929,22 44,22 C37.071,22 32.772,20.767 32.055,20 C32.772,19.233 37.071,18 44,18 L44,18 Z" id="Shape" fill="#000000">

</path>
        <path d="M20.293,23.707 C20.385,23.799 20.496,23.873 20.618,23.923 C20.74,23.974 20.87,24 21,24 C21.13,24 21.26,23.974 21.382,23.923 C21.504,23.872 21.615,23.799 21.707,23.707 L26.707,18.707 C27.098,18.316 27.098,17.684 26.707,17.293 C26.316,16.902 25.684,16.902 25.293,17.293 L22,20.586 L22,19 C22,11.832 26.486,6 32,6 C35.806,6 39.341,8.888 41.007,13.356 C41.2,13.874 41.778,14.137 42.293,13.944 C42.811,13.751 43.074,13.175 42.881,12.658 C40.921,7.398 36.649,4 32,4 C25.383,4 20,10.729 20,19 L20,20.586 L16.707,17.293 C16.316,16.902 15.684,16.902 15.293,17.293 C14.902,17.684 14.902,18.316 15.293,18.707 L20.293,23.707 L20.293,23.707 Z" id="Shape" fill="#000000">

</path>
    </g>
</svg>